<svg xmlns="http://www.w3.org/2000/svg" version="1.1" xmlns:xlink="http://www.w3.org/1999/xlink" xmlns:svgjs="http://svgjs.dev/svgjs" width="1500" height="787" viewBox="0 0 1500 787"><g transform="matrix(1,0,0,1,-0.9090909090909918,-0.6207882019843964)"><svg viewBox="0 0 396 208" data-background-color="#ffffff" preserveAspectRatio="xMidYMid meet" height="787" width="1500" xmlns="http://www.w3.org/2000/svg" xmlns:xlink="http://www.w3.org/1999/xlink"><g id="tight-bounds" transform="matrix(1,0,0,1,0.2400000000000091,0.16407108769091394)"><svg viewBox="0 0 395.52 207.67185782461817" height="207.67185782461817" width="395.52"><g><svg viewBox="0 0 395.52 207.67185782461817" height="207.67185782461817" width="395.52"><g transform="matrix(1,0,0,1,0,128.34953951735048)"><svg viewBox="0 0 395.52 79.3223183072677" height="79.3223183072677" width="395.52"><g id="textblocktransform"><svg viewBox="0 0 395.52 79.3223183072677" height="79.3223183072677" width="395.52" id="textblock"><g><svg viewBox="0 0 395.52 79.3223183072677" height="79.3223183072677" width="395.52"><g transform="matrix(1,0,0,1,0,0)"><svg width="395.52" viewBox="1.1 -41.5 271.72999999999996 54.5" height="79.3223183072677" data-palette-color="#1f55b3"><path d="M1.1-23.35L1.1-25.7 6.75-25.7 6.75-29.3Q6.75-35.05 9.78-38.27 12.8-41.5 18.4-41.5L18.4-41.5Q21.5-41.5 23.45-40.55 25.4-39.6 25.4-38.1L25.4-38.1Q25.4-37.1 24.78-36.43 24.15-35.75 23.2-35.75L23.2-35.75Q22.6-35.75 21.93-36.13 21.25-36.5 20.15-37.4L20.15-37.4Q18.9-38.45 18.2-38.78 17.5-39.1 16.55-39.1L16.55-39.1Q13.55-39.1 12.25-36.05L12.25-36.05Q11.8-35.05 11.63-33.6 11.45-32.15 11.45-29.6L11.45-29.6 11.45-25.7 19.5-25.7 19.5-23.35 11.45-23.35 11.45-8.05Q11.45-6.2 11.68-5 11.9-3.8 12.48-3.08 13.05-2.35 14.05-2.08 15.05-1.8 16.65-1.75L16.65-1.75 16.65 0 2.45 0 2.45-1.75Q3.85-1.8 4.7-2.02 5.55-2.25 6-2.88 6.45-3.5 6.6-4.63 6.75-5.75 6.75-7.65L6.75-7.65 6.75-23.35 1.1-23.35ZM38.05-10.85L38.05-14.8Q35.2-13.7 33.22-12.65 31.25-11.6 30.05-10.55 28.85-9.5 28.32-8.45 27.8-7.4 27.8-6.3L27.8-6.3Q27.8-4.65 28.9-3.6 30-2.55 31.8-2.55L31.8-2.55Q33.1-2.55 34.22-3.2 35.35-3.85 36.2-4.98 37.05-6.1 37.55-7.63 38.05-9.15 38.05-10.85L38.05-10.85ZM30.85-13.8L38.05-16.95 38.05-19Q38.05-25.1 32.85-25.1L32.85-25.1Q32-25.1 31.4-24.95 30.8-24.8 30.4-24.45 30-24.1 29.67-23.45 29.35-22.8 29.05-21.85L29.05-21.85Q28.5-20.4 27.97-19.93 27.45-19.45 26.45-19.45L26.45-19.45Q23.95-19.45 23.95-21.95L23.95-21.95Q23.95-24.35 26.5-25.68 29.05-27 33.75-27L33.75-27Q38.75-27 40.85-25.23 42.95-23.45 42.95-19.2L42.95-19.2 42.95-8Q42.95-2.3 45.2-2.3L45.2-2.3Q45.9-2.3 46.55-2.48 47.2-2.65 47.65-3.4L47.65-3.4 48.35-2.2Q47.75-1.05 46.15-0.28 44.55 0.5 42.8 0.5L42.8 0.5Q40.6 0.5 39.52-0.9 38.45-2.3 38.45-4.85L38.45-4.85 38.2-4.85Q36.9-2.4 34.6-0.98 32.3 0.45 29.5 0.45L29.5 0.45Q26.35 0.45 24.55-1.15 22.75-2.75 22.75-5.45L22.75-5.45Q22.75-6.65 23.17-7.75 23.6-8.85 24.55-9.85 25.5-10.85 27.05-11.83 28.6-12.8 30.85-13.8L30.85-13.8ZM53.59-1.75L52.59 0 51.5 0 51.5-8.6 52.75-8.6Q54.7-1.55 59.84-1.55L59.84-1.55Q61.84-1.55 63.02-2.53 64.2-3.5 64.2-5.5L64.2-5.5Q64.2-6.25 63.97-6.78 63.75-7.3 63.12-7.88 62.5-8.45 61.37-9.2 60.25-9.95 58.4-11.1L58.4-11.1Q56.7-12.15 55.45-13.05 54.2-13.95 53.34-14.88 52.5-15.8 52.07-16.85 51.65-17.9 51.65-19.3L51.65-19.3Q51.65-21 52.22-22.43 52.8-23.85 53.8-24.85 54.8-25.85 56.15-26.43 57.5-27 59.09-27L59.09-27Q60.45-27 61.9-26.58 63.34-26.15 64.45-25.45L64.45-25.45 65.45-26.5 66.4-26.5 66.4-19.3 65.09-19.3Q64-22.35 62.7-23.65 61.4-24.95 59.5-24.95L59.5-24.95Q57.8-24.95 56.77-24.05 55.75-23.15 55.75-21.55L55.75-21.55Q55.75-20.7 56.02-20.08 56.3-19.45 56.9-18.85 57.5-18.25 58.42-17.63 59.34-17 60.65-16.2L60.65-16.2Q62.8-14.85 64.32-13.8 65.84-12.75 66.8-11.73 67.75-10.7 68.2-9.6 68.65-8.5 68.65-7.1L68.65-7.1Q68.65-3.55 66.34-1.53 64.05 0.5 60.3 0.5L60.3 0.5Q56.4 0.5 53.59-1.75L53.59-1.75ZM75.99-23.35L72.99-23.35 72.99-25.2Q75.64-26.75 77.14-28.3 78.64-29.85 79.44-32L79.44-32 80.89-32 80.89-25.7 87.59-25.7 87.59-23.35 80.89-23.35 80.89-8.15Q80.89-6.4 81.07-5.2 81.24-4 81.64-3.28 82.04-2.55 82.69-2.25 83.34-1.95 84.34-1.95L84.34-1.95Q85.59-1.95 86.47-2.48 87.34-3 88.19-4.25L88.19-4.25 89.44-3.3Q88.74-1.45 87.02-0.48 85.29 0.5 82.74 0.5L82.74 0.5Q79.44 0.5 77.72-1.07 75.99-2.65 75.99-5.6L75.99-5.6 75.99-23.35ZM114.74-26.8L114.74-22.9 114.94-22.9Q116.54-24.8 118.39-25.9 120.24-27 122.69-27L122.69-27Q125.54-27 127.91-25.98 130.29-24.95 132.04-23.1 133.79-21.25 134.76-18.73 135.74-16.2 135.74-13.2L135.74-13.2Q135.74-10.15 134.74-7.63 133.74-5.1 131.99-3.3 130.24-1.5 127.84-0.5 125.44 0.5 122.64 0.5L122.64 0.5Q120.34 0.5 118.46-0.28 116.59-1.05 114.94-2.8L114.94-2.8 114.94 4.5Q114.94 6.5 115.14 7.7 115.34 8.9 115.94 9.55 116.54 10.2 117.66 10.45 118.79 10.7 120.64 10.75L120.64 10.75 120.64 12.5 105.24 12.5 105.24 10.75Q106.74 10.7 107.66 10.45 108.59 10.2 109.11 9.55 109.64 8.9 109.84 7.78 110.04 6.65 110.04 4.85L110.04 4.85 110.04-13.85Q110.04-16.75 109.96-18.6 109.89-20.45 109.69-21.15L109.69-21.15Q109.44-22.35 108.54-22.78 107.64-23.2 105.14-23.2L105.14-23.2 105.14-24.9 114.74-26.8ZM116.24-21.45L116.24-21.45Q115.59-20.45 115.26-19.07 114.94-17.7 114.94-15.5L114.94-15.5 114.94-11.6Q114.94-10.25 115.01-9.28 115.09-8.3 115.24-7.6 115.39-6.9 115.64-6.35 115.89-5.8 116.29-5.3L116.29-5.3Q117.44-3.7 119.04-2.83 120.64-1.95 122.39-1.95L122.39-1.95Q125.84-1.95 127.96-4.85 130.09-7.75 130.09-13L130.09-13Q130.09-15.6 129.51-17.73 128.94-19.85 127.89-21.38 126.84-22.9 125.36-23.75 123.89-24.6 122.09-24.6L122.09-24.6Q120.29-24.6 118.76-23.78 117.24-22.95 116.24-21.45ZM148.59-14.35L148.59-7.95Q148.59-5.9 148.69-4.7 148.78-3.5 149.21-2.88 149.63-2.25 150.44-2.05 151.24-1.85 152.69-1.75L152.69-1.75 152.69 0 139.38 0 139.38-1.75Q140.84-1.85 141.69-2.05 142.53-2.25 142.99-2.85 143.44-3.45 143.56-4.58 143.69-5.7 143.69-7.6L143.69-7.6 143.69-28.55Q143.69-31.5 143.61-33.25 143.53-35 143.34-35.9L143.34-35.9Q143.24-36.5 143.01-36.88 142.78-37.25 142.34-37.48 141.88-37.7 141.13-37.8 140.38-37.9 139.28-37.9L139.28-37.9 139.28-39.6 148.49-41.5 148.49-22.45 148.69-22.45Q149.44-23.45 150.56-24.28 151.69-25.1 152.99-25.7 154.28-26.3 155.71-26.65 157.13-27 158.49-27L158.49-27Q160.78-27 162.71-26.2 164.63-25.4 165.69-24.05L165.69-24.05Q166.53-22.9 166.94-21.03 167.34-19.15 167.34-15.95L167.34-15.95 167.34-7.95Q167.34-5.9 167.44-4.73 167.53-3.55 167.96-2.9 168.38-2.25 169.19-2.05 169.99-1.85 171.44-1.75L171.44-1.75 171.44 0 158.19 0 158.19-1.75Q159.59-1.8 160.44-2.02 161.28-2.25 161.71-2.85 162.13-3.45 162.26-4.58 162.38-5.7 162.38-7.6L162.38-7.6 162.38-13.9Q162.38-19.5 161.09-21.88 159.78-24.25 156.74-24.25L156.74-24.25Q154.38-24.25 152.46-23.05 150.53-21.85 149.44-19.75L149.44-19.75Q149.19-19.2 149.01-18.73 148.84-18.25 148.74-17.65 148.63-17.05 148.61-16.28 148.59-15.5 148.59-14.35L148.59-14.35ZM196.53-16.4L185.63 7.85Q183.33 13 178.48 13L178.48 13Q175.33 13 175.33 10.65L175.33 10.65Q175.33 9.4 176.21 8.83 177.08 8.25 179.43 7.85L179.43 7.85Q180.48 7.7 181.23 7.43 181.98 7.15 182.58 6.73 183.18 6.3 183.66 5.65 184.13 5 184.58 4.05L184.58 4.05 186.33 0.55 176.73-20.3Q176.08-21.7 175.61-22.53 175.13-23.35 174.61-23.83 174.08-24.3 173.43-24.48 172.78-24.65 171.78-24.75L171.78-24.75 171.78-26.5 185.03-26.5 185.03-24.75Q181.68-24.75 181.68-23.1L181.68-23.1Q181.68-22.45 182.08-21.05 182.48-19.65 183.08-18.2L183.08-18.2 188.58-4.9 188.83-4.9 193.38-16.15Q194.03-17.8 194.46-18.85 194.88-19.9 195.11-20.58 195.33-21.25 195.41-21.7 195.48-22.15 195.48-22.55L195.48-22.55Q195.48-23.85 194.76-24.3 194.03-24.75 191.98-24.75L191.98-24.75 191.98-26.5 202.98-26.5 202.98-24.75Q202.03-24.75 201.38-24.5 200.73-24.25 200.06-23.38 199.38-22.5 198.56-20.85 197.73-19.2 196.53-16.4L196.53-16.4ZM208.08-1.75L207.08 0 205.98 0 205.98-8.6 207.23-8.6Q209.18-1.55 214.33-1.55L214.33-1.55Q216.33-1.55 217.51-2.53 218.68-3.5 218.68-5.5L218.68-5.5Q218.68-6.25 218.46-6.78 218.23-7.3 217.61-7.88 216.98-8.45 215.86-9.2 214.73-9.95 212.88-11.1L212.88-11.1Q211.18-12.15 209.93-13.05 208.68-13.95 207.83-14.88 206.98-15.8 206.56-16.85 206.13-17.9 206.13-19.3L206.13-19.3Q206.13-21 206.71-22.43 207.28-23.85 208.28-24.85 209.28-25.85 210.63-26.43 211.98-27 213.58-27L213.58-27Q214.93-27 216.38-26.58 217.83-26.15 218.93-25.45L218.93-25.45 219.93-26.5 220.88-26.5 220.88-19.3 219.58-19.3Q218.48-22.35 217.18-23.65 215.88-24.95 213.98-24.95L213.98-24.95Q212.28-24.95 211.26-24.05 210.23-23.15 210.23-21.55L210.23-21.55Q210.23-20.7 210.51-20.08 210.78-19.45 211.38-18.85 211.98-18.25 212.91-17.63 213.83-17 215.13-16.2L215.13-16.2Q217.28-14.85 218.81-13.8 220.33-12.75 221.28-11.73 222.23-10.7 222.68-9.6 223.13-8.5 223.13-7.1L223.13-7.1Q223.13-3.55 220.83-1.53 218.53 0.5 214.78 0.5L214.78 0.5Q210.88 0.5 208.08-1.75L208.08-1.75ZM236.88-27L236.88-7.95Q236.88-6 237.05-4.83 237.23-3.65 237.73-2.98 238.23-2.3 239.13-2.05 240.03-1.8 241.53-1.75L241.53-1.75 241.53 0 227.18 0 227.18-1.75Q228.68-1.8 229.63-2.08 230.58-2.35 231.1-2.98 231.63-3.6 231.8-4.73 231.98-5.85 231.98-7.6L231.98-7.6 231.98-14Q231.98-16.9 231.9-18.78 231.83-20.65 231.63-21.35L231.63-21.35Q231.38-22.5 230.48-22.93 229.58-23.35 227.08-23.35L227.08-23.35 227.08-25.1 236.88-27ZM231.13-37.15L231.13-37.15Q231.13-38.45 232.03-39.35 232.93-40.25 234.23-40.25L234.23-40.25Q235.53-40.25 236.43-39.35 237.33-38.45 237.33-37.15L237.33-37.15Q237.33-35.85 236.43-34.95 235.53-34.05 234.23-34.05L234.23-34.05Q232.93-34.05 232.03-34.95 231.13-35.85 231.13-37.15ZM258.78-27L258.78-27Q261.63-27 264.18-25.98 266.73-24.95 268.65-23.15 270.58-21.35 271.7-18.88 272.83-16.4 272.83-13.45L272.83-13.45Q272.83-10.4 271.7-7.85 270.58-5.3 268.65-3.45 266.73-1.6 264.18-0.55 261.63 0.5 258.78 0.5L258.78 0.5Q255.98 0.5 253.45-0.53 250.93-1.55 249.03-3.4 247.13-5.25 246.03-7.83 244.93-10.4 244.93-13.45L244.93-13.45Q244.93-16.4 246.03-18.9 247.13-21.4 249.03-23.2 250.93-25 253.45-26 255.98-27 258.78-27ZM258.78-24.6L258.78-24.6Q256.93-24.6 255.4-23.8 253.88-23 252.8-21.53 251.73-20.05 251.15-17.98 250.58-15.9 250.58-13.4L250.58-13.4Q250.58-10.8 251.15-8.7 251.73-6.6 252.8-5.13 253.88-3.65 255.38-2.85 256.88-2.05 258.78-2.05L258.78-2.05Q260.68-2.05 262.23-2.85 263.78-3.65 264.88-5.15 265.98-6.65 266.58-8.75 267.18-10.85 267.18-13.4L267.18-13.4Q267.18-15.9 266.58-17.95 265.98-20 264.88-21.48 263.78-22.95 262.23-23.78 260.68-24.6 258.78-24.6Z" opacity="1" transform="matrix(1,0,0,1,0,0)" fill="#1f55b3" class="wordmark-text-0" data-fill-palette-color="primary" id="text-0"></path></svg></g></svg></g></svg></g></svg></g><g transform="matrix(1,0,0,1,142.948278049678,0)"><svg viewBox="0 0 109.62344390064396 109.62344390064396" height="109.62344390064396" width="109.62344390064396"><g><svg></svg></g><g id="icon-0"><svg viewBox="0 0 109.62344390064396 109.62344390064396" height="109.62344390064396" width="109.62344390064396"><g><path transform="scale(1.09623,1.09623)" d="M30 100c-16.569 0-30-13.431-30-30v-40c0-16.569 13.431-30 30-30h40c16.569 0 30 13.431 30 30v40c0 16.569-13.431 30-30 30z" fill="#ff585f" fill-rule="nonzero" stroke="none" stroke-width="1" stroke-linecap="butt" stroke-linejoin="miter" stroke-miterlimit="10" stroke-dasharray="" stroke-dashoffset="0" font-family="none" font-weight="none" font-size="none" text-anchor="none" style="mix-blend-mode: normal" data-fill-palette-color="accent"></path></g><g transform="matrix(1,0,0,1,21.924688780128797,28.361759101794508)"><svg viewBox="0 0 65.77406634038637 52.89992569705495" height="52.89992569705495" width="65.77406634038637"><g><svg xmlns="http://www.w3.org/2000/svg" xmlns:xlink="http://www.w3.org/1999/xlink" version="1.1" x="0" y="0" viewBox="0 9.786 100.00034525290005 80.42699999999999" enable-background="new 0 0 100 100" xml:space="preserve" id="dxe-0" width="65.77406634038637" height="52.89992569705495" class="icon-dxe-0" data-fill-palette-color="quaternary"><path d="M49.942 52.994L90.595 51.529C88.068 47.352 87.436 43.698 82.606 43.068 75.377 42.128 68.148 41.185 60.918 40.242L18.843 34.762C20.101 36.792 39.724 53.361 49.942 52.994" fill="#ffffff" data-fill-palette-color="quaternary"></path><path d="M0 9.786C4.391 17.043 26.615 32.858 32.953 33.672 50.283 35.903 67.61 38.132 84.939 40.36 81.546 34.753 80.759 31.01 74.627 29.401L47.91 22.378C31.94 18.182 15.97 13.984 0 9.786" fill="#ffffff" data-fill-palette-color="quaternary"></path><path d="M63.108 66.207L94.349 59.547C92.321 56.201 92.315 54.188 88.522 54.358 82.364 54.631 76.208 54.907 70.051 55.18 58.708 55.686 47.365 56.194 36.023 56.698 37.298 58.064 54.94 67.947 63.108 66.207" fill="#ffffff" data-fill-palette-color="quaternary"></path><path d="M87.682 90.213C93.407 86.494 94.944 82.492 98.201 76.406 101.852 69.582 99.458 68.562 95.38 61.81 94.963 61.122 89.538 62.042 88.927 62.714 88.182 63.532 88.679 68.169 88.633 69.21z" fill="#ffffff" data-fill-palette-color="quaternary"></path><path d="M86.35 63.447C82.555 64.256 77.746 63.638 76.778 67.676L72.658 84.887C81.904 82.678 86.028 71.582 86.35 63.447" fill="#ffffff" data-fill-palette-color="quaternary"></path><path d="M74.666 66.121C65.518 68.074 65.71 70.732 61.787 79.301 68.007 78.711 73.811 71.941 74.666 66.121" fill="#ffffff" data-fill-palette-color="quaternary"></path></svg></g></svg></g></svg></g></svg></g><g></g></svg></g><defs></defs></svg><rect width="395.52" height="207.67185782461817" fill="none" stroke="none" visibility="hidden"></rect></g></svg></g></svg>